<svg width="12" height="16" viewBox="0 0 12 16" fill="none" xmlns="http://www.w3.org/2000/svg">
<path d="M8.18742 3.62492C8.76709 3.62665 9.32253 3.85769 9.73242 4.26758C10.1423 4.67747 10.3733 5.23291 10.3751 5.81258V10.1874C10.3733 10.7671 10.1423 11.3225 9.73242 11.7324C9.32253 12.1423 8.76709 12.3733 8.18742 12.3751H3.81258C3.23291 12.3733 2.67747 12.1423 2.26758 11.7324C1.85769 11.3225 1.62665 10.7671 1.62492 10.1874V5.81258C1.62665 5.23291 1.85769 4.67747 2.26758 4.26758C2.67747 3.85769 3.23291 3.62665 3.81258 3.62492H8.18742ZM8.18742 2.75H3.81258C2.12812 2.75 0.75 4.12812 0.75 5.81258V10.1874C0.75 11.8719 2.12812 13.25 3.81258 13.25H8.18742C9.87187 13.25 11.25 11.8719 11.25 10.1874V5.81258C11.25 4.12812 9.87187 2.75 8.18742 2.75Z" fill="#161617"/>
<path d="M8.84369 5.81262C8.7139 5.81262 8.58702 5.77413 8.4791 5.70202C8.37118 5.62991 8.28706 5.52742 8.23739 5.40751C8.18772 5.28759 8.17473 5.15564 8.20005 5.02834C8.22537 4.90104 8.28787 4.78411 8.37965 4.69233C8.47143 4.60056 8.58836 4.53805 8.71566 4.51273C8.84296 4.48741 8.97491 4.50041 9.09483 4.55008C9.21474 4.59975 9.31723 4.68386 9.38934 4.79178C9.46145 4.8997 9.49994 5.02658 9.49994 5.15637C9.50012 5.2426 9.48328 5.32802 9.45036 5.40773C9.41745 5.48743 9.36912 5.55985 9.30814 5.62082C9.24717 5.6818 9.17475 5.73013 9.09505 5.76304C9.01534 5.79596 8.92992 5.81281 8.84369 5.81262Z" fill="#161617"/>
<path d="M6 6.24992C6.34613 6.24992 6.68449 6.35256 6.97229 6.54486C7.26009 6.73716 7.4844 7.01049 7.61686 7.33027C7.74932 7.65006 7.78397 8.00194 7.71645 8.34142C7.64892 8.6809 7.48224 8.99274 7.23749 9.23749C6.99273 9.48224 6.6809 9.64892 6.34142 9.71645C6.00194 9.78398 5.65006 9.74932 5.33027 9.61686C5.01049 9.4844 4.73716 9.26009 4.54486 8.97229C4.35256 8.68449 4.24992 8.34613 4.24992 8C4.25042 7.536 4.43496 7.09115 4.76306 6.76306C5.09115 6.43496 5.536 6.25042 6 6.24992ZM6 5.375C5.48082 5.375 4.97331 5.52895 4.54163 5.81739C4.10995 6.10583 3.7735 6.5158 3.57482 6.99546C3.37614 7.47511 3.32415 8.00291 3.42544 8.51211C3.52673 9.02131 3.77673 9.48904 4.14384 9.85616C4.51096 10.2233 4.97869 10.4733 5.48789 10.5746C5.99709 10.6758 6.52488 10.6239 7.00454 10.4252C7.4842 10.2265 7.89416 9.89005 8.1826 9.45837C8.47104 9.02669 8.62499 8.51918 8.62499 8C8.62499 7.30381 8.34843 6.63613 7.85615 6.14384C7.36387 5.65156 6.69619 5.375 6 5.375Z" fill="#161617"/>
</svg>
